<?xml version="1.0" standalone="no"?>
<!DOCTYPE svg PUBLIC "-//W3C//DTD SVG 20010904//EN"
 "http://www.w3.org/TR/2001/REC-SVG-20010904/DTD/svg10.dtd">
<svg version="1.0" xmlns="http://www.w3.org/2000/svg"
 width="1046.000000pt" height="1046.000000pt" viewBox="0 0 1046.000000 1046.000000"
 preserveAspectRatio="xMidYMid meet">
<metadata>
Created by potrace 1.11, written by Peter Selinger 2001-2013
</metadata>
<g transform="translate(0.000000,1046.000000) scale(0.100000,-0.100000)"
fill="#000000" stroke="none">
<path d="M1995 10446 c-97 -31 -172 -95 -214 -186 l-26 -55 -2 -1605 c-2
-1299 1 -1615 11 -1656 27 -104 102 -186 209 -229 l52 -21 0 -148 0 -148 -49
-20 c-108 -42 -187 -129 -211 -232 -10 -44 -13 -639 -14 -2948 l0 -2893 21
-69 c18 -57 32 -79 79 -128 31 -32 64 -58 73 -58 9 0 16 -4 16 -8 0 -5 26 -15
58 -23 48 -12 551 -14 3247 -13 2984 0 3193 1 3240 17 105 36 192 128 218 233
10 39 13 668 12 2959 -1 2869 -1 2911 -20 2965 -14 38 -37 72 -75 111 -50 51
-129 99 -164 99 -11 0 -13 29 -13 154 l1 153 54 19 c97 33 188 136 209 236 11
54 10 3224 -1 3258 -34 102 -93 172 -183 216 l-58 29 -3215 2 c-2574 1 -3223
-1 -3255 -11z"/>
</g>
</svg>
