<svg id="Layer_1" data-name="Layer 1" xmlns="http://www.w3.org/2000/svg" viewBox="0 0 493 200"><defs><style>.cls-1{fill:#61d061;}.cls-2{fill:#feedbf;}.cls-3{fill:#81995d;}</style></defs><title>Untitled-1</title><rect class="cls-1" width="493" height="200"/><path class="cls-2" d="M601.5,720V613A26.5,26.5,0,0,1,575,586.5H175A26.5,26.5,0,0,1,148.5,613V720A26.5,26.5,0,0,1,175,746.5H575A26.5,26.5,0,0,1,601.5,720Z" transform="translate(-128.5 -566.5)"/><circle class="cls-1" cx="59.5" cy="99.5" r="19"/><circle class="cls-1" cx="432.5" cy="99.5" r="19"/><path class="cls-3" d="M438.1,586.5H311.9a101.5,101.5,0,0,0,1.28,160H436.82a101.5,101.5,0,0,0,1.28-160Zm-60.8,71.74c3.52,0,34.51,2.11,34.51,28.88,0,20.78-28.52,26.17-28.52,26.17s1.14,12.22-8.45,12.22c-7.52,0-8.45-7.75-8.45-12-12,0-27.47-12-28.17-25.36s17.61-14.09,17.61-.7,38.74,12,38.74,0-14.79-12-18.31-12-38-3.52-38-28.88c0-17.61,23.24-26.76,28.17-26.76,0-7,1.41-12,8.1-12.33,9.85-.52,9.16,7.75,9.16,12,12,0,28.17,12,28.17,26.06s-16.9,12-16.9,0c0-13.73-39.44-13.73-39.44,0C355.46,658.24,373.78,658.24,377.3,658.24Z" transform="translate(-128.5 -566.5)"/><circle class="cls-3" cx="468.5" cy="24.5" r="10"/><circle class="cls-3" cx="468.5" cy="175.5" r="10"/><circle class="cls-3" cx="24.5" cy="175.5" r="10"/><circle class="cls-3" cx="24.5" cy="24.5" r="10"/></svg>