<?xml version="1.0" encoding="utf-8"?>
<!-- Generator: Adobe Illustrator 14.0.0, SVG Export Plug-In  -->
<!DOCTYPE svg PUBLIC "-//W3C//DTD SVG 1.1//EN" "http://www.w3.org/Graphics/SVG/1.1/DTD/svg11.dtd" [
	<!ENTITY ns_flows "http://ns.adobe.com/Flows/1.0/">
]>
<svg version="1.1"
	 xmlns="http://www.w3.org/2000/svg" xmlns:xlink="http://www.w3.org/1999/xlink" xmlns:a="http://ns.adobe.com/AdobeSVGViewerExtensions/3.0/"
	 x="0px" y="0px" width="576px" height="576px" viewBox="-44.645 -44.557 576 576" enable-background="new -44.645 -44.557 576 576"
	 xml:space="preserve">
<defs>
</defs>
<path fill="#F3F3F3" d="M376.132,399.885c0,0-1.604-1.948-4.469-5.446c-1.438-1.759-3.192-3.903-5.218-6.378
	c-30.359-37.121-121.439-148.485-121.439-148.485l-13.896,11.363l-9.84,8.048l-13.896,11.362c0,0,91.082,111.365,121.443,148.487
	c2.023,2.476,3.777,4.62,5.218,6.378c8.98,7.44,2.827,15.273,5.603,23.686c0.509,3.38,1.234,6.992,2.265,10.612
	c2.058,7.243,5.333,14.53,10.525,20.091c1.905,2.041,3.921,3.615,6.012,4.782c2.091,1.168,4.259,1.93,6.468,2.346
	c4.189,0.258,10.41,0.775,11.244-4.111c5.331-25.378,20.129-33.275,44.107-34.672c1.843-0.106,2.894-2.367,4.344-4.573
	c0.802-2.019,1.196-4.221,1.227-6.469c0.062-4.497-1.265-9.101-4.51-13.646c-4.421-6.194-10.912-10.848-17.602-14.304
	c-3.346-1.728-6.741-3.154-9.953-4.326c-3.213-1.171-6.243-2.09-8.856-2.793C379.684,400.431,376.132,399.885,376.132,399.885z"/>
<path fill="#C59C6D" d="M264.251,321.837c2.916,1.77,6.515,3.318,10.322,3.669c5.182-0.152,8.196-1.951,10.703-3.949
	c14.003-11.151-10.926-28.887,9.347-29.4c7.194-0.182,10.168,9.93,19.822,3.624c23.349-15.246-9.55-35.38-18.289-50.604
	c-2.703-3.395-4.063-7.703-4.733-12.5c-1.342-9.597,0.085-21.152-0.92-31.271c-0.235-4.318-0.511-8.636-0.831-12.944
	c-4.151-56.003-15.718-110.192-41.084-136.967C211.515,12.362,136.93-33.409,50.262,35.664
	C-16.5,86.492-13.265,176.856,39.399,242.69c19.938,24.925,73.448,46.025,113.91,59.077c2.396,0.761,4.745,1.495,7.051,2.196
	c26.544,6.044,48.755,10.54,60.107,37.551c4.369,7.612,9.775,14.4,21.084,13.714c6.171-0.756,11.353-4.883,13.47-10.73
	c1.441-6.694,1.173-13.412-1.185-19.306C253.836,325.192,252.708,314.837,264.251,321.837z"/>
</svg>
